# xmcd
#
# Track frame offsets:
#	150
#	15715
#	31240
#	45055
#	57510
#	71355
#	85797
#	97105
#	115540
#	132147
#	145982
#	160302
#	176795
#	190327
#	204927
#	217670
#	229702
#	244087
#	257422
#	272802
#
# Disc length: 3805 seconds
#
# Revision: 2
# Processed by: cddbd v1.4PL0 Copyright (c) Steve Scherf et al.
# Submitted via: audiograbber 1.80
#
DISCID=090edb14
DTITLE=Don Williams - The Best Of Don Williams
DYEAR=1900
DGENRE=
TTITLE0=I Recall A Gipsy Woman
TTITLE1=Till The Rivers All Runs Dry
TTITLE2=Say It Again
TTITLE3=Some Broken Hearts Never Mend
TTITLE4=I'm Just A Country Boy
TTITLE5=Tulsa Time
TTITLE6=It Must Be Love
TTITLE7=I Believe In You
TTITLE8=Love Is On A Roll
TTITLE9=Stay Young
TTITLE10=Amanda
TTITLE11=That's The Thing About Love
TTITLE12=Shelter Of Your Eyes
TTITLE13=She's In Love With A Rodeo Man
TTITLE14=It's Gotta Be Magic
TTITLE15=Your Sweet Love
TTITLE16=Listen To The Radio
TTITLE17=Love Me Over Again
TTITLE18=All I'm Missing Is You
TTITLE19=You're My Best Friend
EXTD=
EXTT0=
EXTT1=
EXTT2=
EXTT3=
EXTT4=
EXTT5=
EXTT6=
EXTT7=
EXTT8=
EXTT9=
EXTT10=
EXTT11=
EXTT12=
EXTT13=
EXTT14=
EXTT15=
EXTT16=
EXTT17=
EXTT18=
EXTT19=
PLAYORDER=
